<svg width="16" height="16" viewBox="0 0 16 16" fill="none" xmlns="http://www.w3.org/2000/svg">
<path d="M13.9996 7.1375C13.6558 6.98655 13.2843 6.90877 12.9087 6.90909H3.09055C2.71505 6.90873 2.34356 6.98639 1.99964 7.13716C1.51358 7.34972 1.09996 7.69929 0.809359 8.14313C0.518754 8.58696 0.363746 9.10585 0.363281 9.63636V13.4545C0.363281 13.5992 0.420749 13.7379 0.523041 13.8402C0.625334 13.9425 0.764072 14 0.908736 14C1.0534 14 1.19214 13.9425 1.29443 13.8402C1.39672 13.7379 1.45419 13.5992 1.45419 13.4545V13.1818C1.45507 13.1098 1.48409 13.0409 1.53505 12.9899C1.586 12.939 1.65486 12.91 1.72692 12.9091H14.2724C14.3444 12.91 14.4133 12.939 14.4642 12.9899C14.5152 13.0409 14.5442 13.1098 14.5451 13.1818V13.4545C14.5451 13.5992 14.6026 13.7379 14.7049 13.8402C14.8072 13.9425 14.9459 14 15.0906 14C15.2352 14 15.374 13.9425 15.4762 13.8402C15.5785 13.7379 15.636 13.5992 15.636 13.4545V9.63636C15.6355 9.10591 15.4804 8.5871 15.1898 8.14332C14.8992 7.69955 14.4857 7.35004 13.9996 7.1375ZM12.0906 2H3.90874C3.40241 2 2.91683 2.20114 2.5588 2.55916C2.20078 2.91718 1.99964 3.40277 1.99964 3.90909V6.36364C1.99966 6.38477 2.00459 6.40561 2.01403 6.42451C2.02348 6.44341 2.03719 6.45986 2.05409 6.47255C2.07098 6.48525 2.09059 6.49384 2.11138 6.49766C2.13216 6.50148 2.15355 6.50041 2.17385 6.49455C2.47162 6.40745 2.78031 6.36337 3.09055 6.36364H3.23476C3.26842 6.36385 3.30097 6.35161 3.32614 6.32927C3.35131 6.30692 3.36734 6.27606 3.37112 6.24261C3.40087 5.97609 3.52776 5.72986 3.72754 5.55095C3.92733 5.37205 4.18601 5.273 4.45419 5.27273H6.36328C6.63164 5.27275 6.89057 5.37168 7.09057 5.55061C7.29057 5.72954 7.4176 5.97591 7.44737 6.24261C7.45116 6.27606 7.46718 6.30692 7.49235 6.32927C7.51753 6.35161 7.55008 6.36385 7.58374 6.36364H8.4176C8.45126 6.36385 8.48381 6.35161 8.50898 6.32927C8.53416 6.30692 8.55018 6.27606 8.55396 6.24261C8.5837 5.97626 8.71043 5.73018 8.91 5.55129C9.10957 5.37241 9.368 5.27325 9.63601 5.27273H11.5451C11.8135 5.27275 12.0724 5.37168 12.2724 5.55061C12.4724 5.72954 12.5994 5.97591 12.6292 6.24261C12.633 6.27606 12.649 6.30692 12.6742 6.32927C12.6993 6.35161 12.7319 6.36385 12.7656 6.36364H12.9087C13.219 6.36349 13.5277 6.40768 13.8254 6.49489C13.8458 6.50076 13.8672 6.50182 13.888 6.49798C13.9088 6.49415 13.9284 6.48552 13.9453 6.47279C13.9622 6.46006 13.9759 6.44357 13.9854 6.42462C13.9948 6.40568 13.9997 6.3848 13.9996 6.36364V3.90909C13.9996 3.40277 13.7985 2.91718 13.4405 2.55916C13.0825 2.20114 12.5969 2 12.0906 2Z" fill="#A3ABB0"/>
</svg>
