<svg width="15" height="14" viewBox="0 0 15 14" fill="none" xmlns="http://www.w3.org/2000/svg">
<path d="M7.50078 8.40005L2.60078 13.3C2.41745 13.4834 2.18411 13.575 1.90078 13.575C1.61745 13.575 1.38411 13.4834 1.20078 13.3C1.01745 13.1167 0.925781 12.8834 0.925781 12.6C0.925781 12.3167 1.01745 12.0834 1.20078 11.9L6.10078 7.00005L1.20078 2.10005C1.01745 1.91672 0.925781 1.68338 0.925781 1.40005C0.925781 1.11672 1.01745 0.883382 1.20078 0.700048C1.38411 0.516715 1.61745 0.425049 1.90078 0.425049C2.18411 0.425049 2.41745 0.516715 2.60078 0.700048L7.50078 5.60005L12.4008 0.700048C12.5841 0.516715 12.8174 0.425049 13.1008 0.425049C13.3841 0.425049 13.6174 0.516715 13.8008 0.700048C13.9841 0.883382 14.0758 1.11672 14.0758 1.40005C14.0758 1.68338 13.9841 1.91672 13.8008 2.10005L8.90078 7.00005L13.8008 11.9C13.9841 12.0834 14.0758 12.3167 14.0758 12.6C14.0758 12.8834 13.9841 13.1167 13.8008 13.3C13.6174 13.4834 13.3841 13.575 13.1008 13.575C12.8174 13.575 12.5841 13.4834 12.4008 13.3L7.50078 8.40005Z" fill="#5A4D8C"/>
</svg>
