<svg width="16" height="13" viewBox="0 0 16 13" fill="none" xmlns="http://www.w3.org/2000/svg">
<path d="M15.5 0.0559082H0.5C0.37568 0.0559082 0.256451 0.105294 0.168544 0.193202C0.080636 0.28111 0.03125 0.400338 0.03125 0.524658V11.1497C0.03125 11.4397 0.146484 11.7179 0.351602 11.9231C0.55672 12.1282 0.834919 12.2434 1.125 12.2434H14.875C15.1651 12.2434 15.4433 12.1282 15.6484 11.9231C15.8535 11.7179 15.9688 11.4397 15.9688 11.1497V0.524658C15.9688 0.400338 15.9194 0.28111 15.8315 0.193202C15.7435 0.105294 15.6243 0.0559082 15.5 0.0559082ZM14.2953 0.993408L8 6.76372L1.70469 0.993408H14.2953ZM14.875 11.3059H1.125C1.08356 11.3059 1.04382 11.2894 1.01451 11.2601C0.985212 11.2308 0.96875 11.1911 0.96875 11.1497V1.59028L7.6875 7.74497C7.77391 7.82403 7.88679 7.86787 8.00391 7.86787C8.12103 7.86787 8.2339 7.82403 8.32031 7.74497L15.0312 1.59028V11.1497C15.0312 11.1911 15.0148 11.2308 14.9855 11.2601C14.9562 11.2894 14.9164 11.3059 14.875 11.3059Z" fill="#A3ABB0"/>
</svg>
