<svg width="16" height="17" viewBox="0 0 16 17" fill="none" xmlns="http://www.w3.org/2000/svg">
<path d="M1 6.28027V12.0003C1 12.5307 1.21071 13.0394 1.58579 13.4145C1.96086 13.7896 2.46957 14.0003 3 14.0003H13C13.5304 14.0003 14.0391 13.7896 14.4142 13.4145C14.7893 13.0394 15 12.5307 15 12.0003V6.28027L9.048 9.94227C8.73283 10.1362 8.37004 10.2388 8 10.2388C7.62996 10.2388 7.26717 10.1362 6.952 9.94227L1 6.28027Z" fill="#A3ABB0"/>
<path d="M15 5.10533V5C15 4.46957 14.7893 3.96086 14.4142 3.58579C14.0391 3.21071 13.5304 3 13 3H3C2.46957 3 1.96086 3.21071 1.58579 3.58579C1.21071 3.96086 1 4.46957 1 5V5.10533L7.476 9.09067C7.63359 9.18762 7.81498 9.23895 8 9.23895C8.18502 9.23895 8.36641 9.18762 8.524 9.09067L15 5.10533Z" fill="#A3ABB0"/>
</svg>
