<svg width="41" height="41" viewBox="0 0 41 41" fill="none" xmlns="http://www.w3.org/2000/svg">
<path d="M0.5 20.0748C0.5 31.1205 9.45431 40.0748 20.5 40.0748C31.5457 40.0748 40.5 31.1205 40.5 20.0748C40.5 9.02913 31.5457 0.0748291 20.5 0.0748291C9.45431 0.0748291 0.5 9.02913 0.5 20.0748Z" fill="white" fill-opacity="0.1"/>
<path d="M24.1055 21.0748L24.5054 18.1792H22.0048V16.3001C22.0048 15.508 22.3541 14.7358 23.4741 14.7358H24.6109V12.2705C24.6109 12.2705 23.5793 12.0748 22.5929 12.0748C20.5336 12.0748 19.1875 13.4617 19.1875 15.9723V18.1792H16.8984V21.0748H19.1875V28.0748H22.0048V21.0748H24.1055Z" fill="white"/>
</svg>
