<svg width="41" height="41" viewBox="0 0 41 41" fill="none" xmlns="http://www.w3.org/2000/svg">
<path d="M0.5 20.0748C0.5 31.1205 9.45431 40.0748 20.5 40.0748C31.5457 40.0748 40.5 31.1205 40.5 20.0748C40.5 9.02913 31.5457 0.0748291 20.5 0.0748291C9.45431 0.0748291 0.5 9.02913 0.5 20.0748Z" fill="white" fill-opacity="0.1"/>
<path d="M20.4981 17.7405C19.2128 17.7405 18.1638 18.7895 18.1638 20.0748C18.1638 21.3602 19.2128 22.4092 20.4981 22.4092C21.7835 22.4092 22.8324 21.3602 22.8324 20.0748C22.8324 18.7895 21.7835 17.7405 20.4981 17.7405ZM27.4992 20.0748C27.4992 19.1082 27.508 18.1503 27.4537 17.1854C27.3994 16.0646 27.1437 15.0699 26.3242 14.2504C25.5029 13.4291 24.51 13.1752 23.3893 13.1209C22.4226 13.0666 21.4648 13.0753 20.4999 13.0753C19.5332 13.0753 18.5754 13.0666 17.6105 13.1209C16.4897 13.1752 15.4951 13.4308 14.6755 14.2504C13.8543 15.0717 13.6003 16.0646 13.5461 17.1854C13.4918 18.152 13.5005 19.1099 13.5005 20.0748C13.5005 21.0397 13.4918 21.9994 13.5461 22.9643C13.6003 24.085 13.856 25.0797 14.6755 25.8993C15.4968 26.7206 16.4897 26.9745 17.6105 27.0288C18.5771 27.0831 19.535 27.0743 20.4999 27.0743C21.4665 27.0743 22.4244 27.0831 23.3893 27.0288C24.51 26.9745 25.5047 26.7188 26.3242 25.8993C27.1455 25.078 27.3994 24.085 27.4537 22.9643C27.5097 21.9994 27.4992 21.0415 27.4992 20.0748ZM20.4981 23.6665C18.5106 23.6665 16.9065 22.0624 16.9065 20.0748C16.9065 18.0872 18.5106 16.4832 20.4981 16.4832C22.4857 16.4832 24.0897 18.0872 24.0897 20.0748C24.0897 22.0624 22.4857 23.6665 20.4981 23.6665ZM24.2368 17.1749C23.7728 17.1749 23.398 16.8001 23.398 16.3361C23.398 15.872 23.7728 15.4972 24.2368 15.4972C24.7009 15.4972 25.0756 15.872 25.0756 16.3361C25.0758 16.4462 25.0542 16.5554 25.0121 16.6572C24.97 16.7591 24.9082 16.8516 24.8303 16.9295C24.7523 17.0074 24.6598 17.0692 24.558 17.1113C24.4562 17.1534 24.347 17.175 24.2368 17.1749Z" fill="white"/>
</svg>
