<svg width="41" height="41" viewBox="0 0 41 41" fill="none" xmlns="http://www.w3.org/2000/svg">
<path d="M0.5 20.0748C0.5 31.1205 9.45431 40.0748 20.5 40.0748C31.5457 40.0748 40.5 31.1205 40.5 20.0748C40.5 9.02913 31.5457 0.0748291 20.5 0.0748291C9.45431 0.0748291 0.5 9.02913 0.5 20.0748Z" fill="white" fill-opacity="0.1"/>
<path d="M16.0815 28.0748H12.7643V17.3924H16.0815V28.0748ZM14.4211 15.9353C13.3604 15.9353 12.5 15.0567 12.5 13.9959C12.5 13.4864 12.7024 12.9978 13.0627 12.6375C13.423 12.2772 13.9116 12.0748 14.4211 12.0748C14.9306 12.0748 15.4193 12.2772 15.7795 12.6375C16.1398 12.9978 16.3422 13.4864 16.3422 13.9959C16.3422 15.0567 15.4815 15.9353 14.4211 15.9353ZM28.4968 28.0748H25.1867V22.8747C25.1867 21.6354 25.1617 20.0461 23.462 20.0461C21.7373 20.0461 21.4731 21.3925 21.4731 22.7854V28.0748H18.1594V17.3924H21.3409V18.8496H21.3873C21.8302 18.0103 22.912 17.1246 24.526 17.1246C27.8832 17.1246 28.5004 19.3353 28.5004 22.2068V28.0748H28.4968Z" fill="white"/>
</svg>
