<svg width="14" height="18" viewBox="0 0 14 18" fill="none" xmlns="http://www.w3.org/2000/svg">
<path d="M12.625 16.8059H8.34531C9.1065 16.1535 9.81956 15.447 10.4789 14.6918C12.5984 12.2543 13.7188 9.69185 13.7188 7.27466C13.7188 5.49273 13.0109 3.78379 11.7509 2.52378C10.4909 1.26377 8.78192 0.555908 7 0.555908C5.21808 0.555908 3.50914 1.26377 2.24913 2.52378C0.989117 3.78379 0.28125 5.49273 0.28125 7.27466C0.28125 9.6895 1.40156 12.2543 3.52109 14.6918C4.18044 15.447 4.8935 16.1535 5.65469 16.8059H1.375C1.25068 16.8059 1.13145 16.8553 1.04354 16.9432C0.955636 17.0311 0.90625 17.1503 0.90625 17.2747C0.90625 17.399 0.955636 17.5182 1.04354 17.6061C1.13145 17.694 1.25068 17.7434 1.375 17.7434H12.625C12.7493 17.7434 12.8685 17.694 12.9565 17.6061C13.0444 17.5182 13.0938 17.399 13.0938 17.2747C13.0938 17.1503 13.0444 17.0311 12.9565 16.9432C12.8685 16.8553 12.7493 16.8059 12.625 16.8059ZM1.21875 7.27466C1.21875 5.74138 1.82784 4.27089 2.91204 3.1867C3.99623 2.1025 5.46672 1.49341 7 1.49341C8.53328 1.49341 10.0038 2.1025 11.088 3.1867C12.1722 4.27089 12.7812 5.74138 12.7812 7.27466C12.7812 11.9325 8.17188 15.7848 7 16.6895C5.82812 15.7848 1.21875 11.9325 1.21875 7.27466ZM9.96875 7.27466C9.96875 6.68749 9.79464 6.11352 9.46842 5.62531C9.14221 5.1371 8.67856 4.75659 8.13609 4.53189C7.59362 4.30719 6.99671 4.2484 6.42083 4.36295C5.84494 4.4775 5.31596 4.76025 4.90078 5.17544C4.48559 5.59062 4.20284 6.1196 4.08829 6.69548C3.97374 7.27137 4.03254 7.86828 4.25723 8.41075C4.48193 8.95322 4.86244 9.41687 5.35065 9.74308C5.83886 10.0693 6.41284 10.2434 7 10.2434C7.78736 10.2434 8.54247 9.93063 9.09922 9.37388C9.65597 8.81713 9.96875 8.06202 9.96875 7.27466ZM4.96875 7.27466C4.96875 6.87291 5.08788 6.48019 5.31108 6.14616C5.53427 5.81212 5.85151 5.55177 6.22267 5.39803C6.59384 5.24429 7.00225 5.20406 7.39628 5.28244C7.7903 5.36081 8.15224 5.55427 8.43631 5.83835C8.72039 6.12242 8.91384 6.48436 8.99222 6.87838C9.0706 7.2724 9.03037 7.68082 8.87663 8.05198C8.72289 8.42315 8.46254 8.74038 8.1285 8.96358C7.79446 9.18678 7.40174 9.30591 7 9.30591C6.46128 9.30591 5.94462 9.0919 5.56369 8.71097C5.18276 8.33004 4.96875 7.81338 4.96875 7.27466Z" fill="#A3ABB0"/>
</svg>
