<svg width="52" height="52" viewBox="0 0 52 52" fill="none" xmlns="http://www.w3.org/2000/svg">
<rect x="0.5" y="0.5" width="51" height="51" rx="7.5" stroke="#E4E4E4"/>
<path d="M33.5 20.75H16.25V18.5C16.25 18.3011 16.171 18.1103 16.0303 17.9697C15.8897 17.829 15.6989 17.75 15.5 17.75C15.3011 17.75 15.1103 17.829 14.9697 17.9697C14.829 18.1103 14.75 18.3011 14.75 18.5V33.5C14.75 33.6989 14.829 33.8897 14.9697 34.0303C15.1103 34.171 15.3011 34.25 15.5 34.25C15.6989 34.25 15.8897 34.171 16.0303 34.0303C16.171 33.8897 16.25 33.6989 16.25 33.5V30.5H35.75V33.5C35.75 33.6989 35.829 33.8897 35.9697 34.0303C36.1103 34.171 36.3011 34.25 36.5 34.25C36.6989 34.25 36.8897 34.171 37.0303 34.0303C37.171 33.8897 37.25 33.6989 37.25 33.5V24.5C37.25 23.5054 36.8549 22.5516 36.1516 21.8483C35.4484 21.1451 34.4946 20.75 33.5 20.75ZM16.25 22.25H23V29H16.25V22.25ZM24.5 29V22.25H33.5C34.0967 22.25 34.669 22.4871 35.091 22.909C35.5129 23.331 35.75 23.9033 35.75 24.5V29H24.5Z" fill="#161E2D"/>
</svg>
