<svg width="53" height="52" viewBox="0 0 53 52" fill="none" xmlns="http://www.w3.org/2000/svg">
<rect x="1.16602" y="0.5" width="51" height="51" rx="7.5" stroke="#E4E4E4"/>
<path d="M37.166 32H36.416V23.2503C36.416 23.0034 36.3551 22.7604 36.2387 22.5427C36.1222 22.325 35.9539 22.1395 35.7485 22.0025L27.4985 16.5022C27.2521 16.3379 26.9626 16.2502 26.6665 16.2502C26.3704 16.2502 26.0809 16.3379 25.8345 16.5022L17.5845 22.0025C17.3789 22.1394 17.2104 22.3249 17.0938 22.5426C16.9772 22.7602 16.9161 23.0033 16.916 23.2503V32H16.166C15.9671 32 15.7763 32.079 15.6357 32.2196C15.495 32.3603 15.416 32.5511 15.416 32.75C15.416 32.9489 15.495 33.1396 15.6357 33.2803C15.7763 33.421 15.9671 33.5 16.166 33.5H37.166C37.3649 33.5 37.5557 33.421 37.6963 33.2803C37.837 33.1396 37.916 32.9489 37.916 32.75C37.916 32.5511 37.837 32.3603 37.6963 32.2196C37.5557 32.079 37.3649 32 37.166 32ZM18.416 23.2503L26.666 17.75L34.916 23.2493V32H32.666V26.75C32.666 26.5511 32.587 26.3603 32.4463 26.2196C32.3057 26.079 32.1149 26 31.916 26H21.416C21.2171 26 21.0263 26.079 20.8857 26.2196C20.745 26.3603 20.666 26.5511 20.666 26.75V32H18.416V23.2503ZM31.166 27.5V29H27.416V27.5H31.166ZM25.916 29H22.166V27.5H25.916V29ZM22.166 30.5H25.916V32H22.166V30.5ZM27.416 30.5H31.166V32H27.416V30.5Z" fill="#161E2D"/>
</svg>
