<svg width="53" height="52" viewBox="0 0 53 52" fill="none" xmlns="http://www.w3.org/2000/svg">
<rect x="0.833984" y="0.5" width="51" height="51" rx="7.5" stroke="#E4E4E4"/>
<path d="M18.084 22.25H21.1777C21.343 22.8953 21.7183 23.4673 22.2445 23.8758C22.7707 24.2842 23.4179 24.5059 24.084 24.5059C24.7501 24.5059 25.3973 24.2842 25.9235 23.8758C26.4497 23.4673 26.825 22.8953 26.9902 22.25H34.584C34.7829 22.25 34.9737 22.171 35.1143 22.0304C35.255 21.8897 35.334 21.6989 35.334 21.5C35.334 21.3011 35.255 21.1103 35.1143 20.9697C34.9737 20.829 34.7829 20.75 34.584 20.75H26.9902C26.825 20.1047 26.4497 19.5327 25.9235 19.1243C25.3973 18.7158 24.7501 18.4941 24.084 18.4941C23.4179 18.4941 22.7707 18.7158 22.2445 19.1243C21.7183 19.5327 21.343 20.1047 21.1777 20.75H18.084C17.8851 20.75 17.6943 20.829 17.5537 20.9697C17.413 21.1103 17.334 21.3011 17.334 21.5C17.334 21.6989 17.413 21.8897 17.5537 22.0304C17.6943 22.171 17.8851 22.25 18.084 22.25ZM24.084 20C24.3807 20 24.6707 20.088 24.9173 20.2528C25.164 20.4176 25.3563 20.6519 25.4698 20.926C25.5833 21.2001 25.613 21.5017 25.5552 21.7927C25.4973 22.0836 25.3544 22.3509 25.1446 22.5607C24.9349 22.7705 24.6676 22.9133 24.3766 22.9712C24.0856 23.0291 23.784 22.9994 23.51 22.8858C23.2359 22.7723 23.0016 22.5801 22.8368 22.3334C22.672 22.0867 22.584 21.7967 22.584 21.5C22.584 21.1022 22.742 20.7207 23.0233 20.4394C23.3046 20.1581 23.6862 20 24.084 20ZM34.584 29.75H32.9902C32.825 29.1047 32.4497 28.5327 31.9235 28.1243C31.3973 27.7158 30.7501 27.4941 30.084 27.4941C29.4179 27.4941 28.7707 27.7158 28.2445 28.1243C27.7183 28.5327 27.343 29.1047 27.1777 29.75H18.084C17.8851 29.75 17.6943 29.829 17.5537 29.9697C17.413 30.1103 17.334 30.3011 17.334 30.5C17.334 30.6989 17.413 30.8897 17.5537 31.0304C17.6943 31.171 17.8851 31.25 18.084 31.25H27.1777C27.343 31.8953 27.7183 32.4673 28.2445 32.8758C28.7707 33.2842 29.4179 33.5059 30.084 33.5059C30.7501 33.5059 31.3973 33.2842 31.9235 32.8758C32.4497 32.4673 32.825 31.8953 32.9902 31.25H34.584C34.7829 31.25 34.9737 31.171 35.1143 31.0304C35.255 30.8897 35.334 30.6989 35.334 30.5C35.334 30.3011 35.255 30.1103 35.1143 29.9697C34.9737 29.829 34.7829 29.75 34.584 29.75ZM30.084 32C29.7873 32 29.4973 31.912 29.2506 31.7472C29.004 31.5824 28.8117 31.3481 28.6982 31.074C28.5846 30.8 28.5549 30.4984 28.6128 30.2074C28.6707 29.9164 28.8135 29.6491 29.0233 29.4394C29.2331 29.2296 29.5004 29.0867 29.7913 29.0288C30.0823 28.971 30.3839 29.0007 30.658 29.1142C30.9321 29.2277 31.1664 29.42 31.3312 29.6667C31.496 29.9133 31.584 30.2034 31.584 30.5C31.584 30.8978 31.4259 31.2794 31.1446 31.5607C30.8633 31.842 30.4818 32 30.084 32Z" fill="#161E2D"/>
</svg>
