<svg width="53" height="52" viewBox="0 0 53 52" fill="none" xmlns="http://www.w3.org/2000/svg">
<rect x="0.833984" y="0.5" width="51" height="51" rx="7.5" stroke="#E4E4E4"/>
<path d="M36.834 32C36.834 32.1989 36.755 32.3897 36.6143 32.5303C36.4737 32.671 36.2829 32.75 36.084 32.75H33.084V35.75C33.084 35.9489 33.005 36.1397 32.8643 36.2803C32.7237 36.421 32.5329 36.5 32.334 36.5C32.1351 36.5 31.9443 36.421 31.8037 36.2803C31.663 36.1397 31.584 35.9489 31.584 35.75V32.75H20.334C20.1351 32.75 19.9443 32.671 19.8037 32.5303C19.663 32.3897 19.584 32.1989 19.584 32V20.75H16.584C16.3851 20.75 16.1943 20.671 16.0537 20.5303C15.913 20.3897 15.834 20.1989 15.834 20C15.834 19.8011 15.913 19.6103 16.0537 19.4697C16.1943 19.329 16.3851 19.25 16.584 19.25H19.584V16.25C19.584 16.0511 19.663 15.8603 19.8037 15.7197C19.9443 15.579 20.1351 15.5 20.334 15.5C20.5329 15.5 20.7237 15.579 20.8643 15.7197C21.005 15.8603 21.084 16.0511 21.084 16.25V31.25H36.084C36.2829 31.25 36.4737 31.329 36.6143 31.4697C36.755 31.6103 36.834 31.8011 36.834 32ZM23.334 20.75H31.584V29C31.584 29.1989 31.663 29.3897 31.8037 29.5303C31.9443 29.671 32.1351 29.75 32.334 29.75C32.5329 29.75 32.7237 29.671 32.8643 29.5303C33.005 29.3897 33.084 29.1989 33.084 29V20C33.084 19.8011 33.005 19.6103 32.8643 19.4697C32.7237 19.329 32.5329 19.25 32.334 19.25H23.334C23.1351 19.25 22.9443 19.329 22.8037 19.4697C22.663 19.6103 22.584 19.8011 22.584 20C22.584 20.1989 22.663 20.3897 22.8037 20.5303C22.9443 20.671 23.1351 20.75 23.334 20.75Z" fill="#161E2D"/>
</svg>
