<svg width="52" height="52" viewBox="0 0 52 52" fill="none" xmlns="http://www.w3.org/2000/svg">
<rect x="0.5" y="0.5" width="51" height="51" rx="7.5" stroke="#E4E4E4"/>
<path d="M35.75 23H33.5C33.5 22.8011 33.421 22.6104 33.2803 22.4697C33.1397 22.3291 32.9489 22.25 32.75 22.25H26.75C26.5511 22.25 26.3603 22.3291 26.2197 22.4697C26.079 22.6104 26 22.8011 26 23H20V18.875C20 18.5767 20.1185 18.2905 20.3295 18.0795C20.5405 17.8686 20.8266 17.75 21.125 17.75C21.3887 17.749 21.6449 17.8373 21.852 18.0005C22.059 18.1638 22.2046 18.3924 22.265 18.6491C22.3062 18.8424 22.422 19.0116 22.5873 19.1199C22.7526 19.2283 22.9539 19.2671 23.1476 19.2278C23.3413 19.1885 23.5116 19.0744 23.6216 18.9102C23.7316 18.746 23.7724 18.545 23.735 18.351C23.6077 17.7542 23.2786 17.2194 22.8033 16.8368C22.3279 16.4542 21.7352 16.2469 21.125 16.25C20.4288 16.25 19.7611 16.5266 19.2688 17.0189C18.7766 17.5112 18.5 18.1788 18.5 18.875V23H16.25C15.8522 23 15.4706 23.1581 15.1893 23.4394C14.908 23.7207 14.75 24.1022 14.75 24.5V27.5C14.7515 28.892 15.3051 30.2265 16.2893 31.2107C17.2736 32.1949 18.6081 32.7485 20 32.75V34.25C20 34.4489 20.079 34.6397 20.2197 34.7804C20.3603 34.921 20.5511 35 20.75 35C20.9489 35 21.1397 34.921 21.2803 34.7804C21.421 34.6397 21.5 34.4489 21.5 34.25V32.75H30.5V34.25C30.5 34.4489 30.579 34.6397 30.7197 34.7804C30.8603 34.921 31.0511 35 31.25 35C31.4489 35 31.6397 34.921 31.7803 34.7804C31.921 34.6397 32 34.4489 32 34.25V32.75C33.3919 32.7485 34.7264 32.1949 35.7107 31.2107C36.6949 30.2265 37.2485 28.892 37.25 27.5V24.5C37.25 24.1022 37.092 23.7207 36.8107 23.4394C36.5294 23.1581 36.1478 23 35.75 23ZM32 23.75V26.75H27.5V23.75H32ZM35.75 27.5C35.75 27.9925 35.653 28.4801 35.4645 28.9351C35.2761 29.3901 34.9999 29.8035 34.6516 30.1517C34.3034 30.4999 33.89 30.7761 33.4351 30.9646C32.9801 31.153 32.4925 31.25 32 31.25H20C19.0054 31.25 18.0516 30.8549 17.3483 30.1517C16.6451 29.4484 16.25 28.4946 16.25 27.5V24.5H26V27.5C26 27.6989 26.079 27.8897 26.2197 28.0304C26.3603 28.171 26.5511 28.25 26.75 28.25H32.75C32.9489 28.25 33.1397 28.171 33.2803 28.0304C33.421 27.8897 33.5 27.6989 33.5 27.5V24.5H35.75V27.5Z" fill="#161E2D"/>
</svg>
