<svg width="52" height="52" viewBox="0 0 52 52" fill="none" xmlns="http://www.w3.org/2000/svg">
<rect x="0.5" y="0.5" width="51" height="51" rx="7.5" stroke="#E4E4E4"/>
<path d="M36.062 20.8785L31.1223 15.9397C30.983 15.8004 30.8176 15.6899 30.6356 15.6145C30.4536 15.5391 30.2585 15.5002 30.0615 15.5002C29.8645 15.5002 29.6694 15.5391 29.4874 15.6145C29.3054 15.6899 29.14 15.8004 29.0007 15.9397L15.9395 29C15.8001 29.1393 15.6896 29.3047 15.6142 29.4867C15.5388 29.6687 15.5 29.8638 15.5 30.0608C15.5 30.2578 15.5388 30.4529 15.6142 30.6349C15.6896 30.8169 15.8001 30.9823 15.9395 31.1216L20.8791 36.0603C21.0184 36.1997 21.1838 36.3102 21.3658 36.3856C21.5478 36.461 21.7429 36.4998 21.9399 36.4998C22.1369 36.4998 22.332 36.461 22.514 36.3856C22.696 36.3102 22.8614 36.1997 23.0007 36.0603L36.062 23C36.2013 22.8607 36.3118 22.6954 36.3872 22.5133C36.4626 22.3313 36.5014 22.1362 36.5014 21.9392C36.5014 21.7422 36.4626 21.5471 36.3872 21.3651C36.3118 21.1831 36.2013 21.0177 36.062 20.8785ZM21.9395 35L17.0007 30.0603L20.0007 27.0603L22.4701 29.5306C22.5398 29.6003 22.6225 29.6556 22.7135 29.6933C22.8046 29.731 22.9022 29.7504 23.0007 29.7504C23.0993 29.7504 23.1968 29.731 23.2879 29.6933C23.3789 29.6556 23.4617 29.6003 23.5313 29.5306C23.601 29.461 23.6563 29.3782 23.694 29.2872C23.7317 29.1961 23.7511 29.0986 23.7511 29C23.7511 28.9015 23.7317 28.8039 23.694 28.7128C23.6563 28.6218 23.601 28.5391 23.5313 28.4694L21.061 26L23.0007 24.0603L25.4701 26.5306C25.6108 26.6714 25.8017 26.7504 26.0007 26.7504C26.1997 26.7504 26.3906 26.6714 26.5313 26.5306C26.6721 26.3899 26.7511 26.199 26.7511 26C26.7511 25.801 26.6721 25.6101 26.5313 25.4694L24.061 23L26.0007 21.0603L28.4701 23.5306C28.5398 23.6003 28.6225 23.6556 28.7135 23.6933C28.8046 23.731 28.9022 23.7504 29.0007 23.7504C29.0993 23.7504 29.1968 23.731 29.2879 23.6933C29.3789 23.6556 29.4617 23.6003 29.5313 23.5306C29.601 23.461 29.6563 23.3782 29.694 23.2872C29.7317 23.1961 29.7511 23.0986 29.7511 23C29.7511 22.9015 29.7317 22.8039 29.694 22.7128C29.6563 22.6218 29.601 22.5391 29.5313 22.4694L27.061 20L30.061 17L35.0007 21.9397L21.9395 35Z" fill="#161E2D"/>
</svg>
