<svg width="53" height="52" viewBox="0 0 53 52" fill="none" xmlns="http://www.w3.org/2000/svg">
<rect x="1.16602" y="0.5" width="51" height="51" rx="7.5" stroke="#E4E4E4"/>
<g clip-path="url(#clip0_15419_13594)">
<path d="M38.2299 24.5L31.9055 18.1325C30.2164 16.4469 27.9276 15.5001 25.5413 15.5001C23.1549 15.5001 20.8661 16.4469 19.177 18.1325L19.1686 18.141L17.8777 19.475C17.7439 19.6188 17.6719 19.8092 17.677 20.0054C17.6821 20.2017 17.7639 20.3881 17.9049 20.5247C18.0459 20.6612 18.2348 20.7371 18.4311 20.7359C18.6274 20.7348 18.8155 20.6567 18.9549 20.5185L20.242 19.1891C20.7599 18.6713 21.3509 18.2323 21.9961 17.886L26.3555 22.25L17.3555 31.25C17.2162 31.3893 17.1056 31.5547 17.0302 31.7367C16.9548 31.9187 16.916 32.1138 16.916 32.3108C16.916 32.5078 16.9548 32.7029 17.0302 32.8849C17.1056 33.0669 17.2162 33.2323 17.3555 33.3716L19.2952 35.3113C19.4345 35.4506 19.5998 35.5611 19.7818 35.6365C19.9639 35.7119 20.1589 35.7508 20.3559 35.7508C20.553 35.7508 20.748 35.7119 20.93 35.6365C21.1121 35.5611 21.2774 35.4506 21.4167 35.3113L30.4167 26.3113L31.7611 27.6557L33.4167 29.3094C33.556 29.4487 33.7214 29.5593 33.9034 29.6347C34.0854 29.7101 34.2805 29.7489 34.4775 29.7489C34.6745 29.7489 34.8696 29.7101 35.0516 29.6347C35.2336 29.5593 35.399 29.4487 35.5383 29.3094L38.228 26.6197C38.509 26.3387 38.6671 25.9577 38.6674 25.5603C38.6678 25.1628 38.5104 24.7815 38.2299 24.5ZM20.3555 34.25L18.4167 32.3104L24.7917 25.9354L26.7305 27.875L20.3555 34.25ZM29.8861 24.7175L27.7917 26.8129L25.852 24.875L27.9474 22.7797C28.0171 22.7101 28.0724 22.6274 28.1101 22.5363C28.1479 22.4453 28.1673 22.3477 28.1673 22.2491C28.1673 22.1505 28.1479 22.0529 28.1101 21.9619C28.0724 21.8709 28.0171 21.7881 27.9474 21.7185L23.5092 17.2813C24.7915 16.9202 26.1468 16.9071 27.4358 17.2434C28.7247 17.5797 29.9009 18.2532 30.8433 19.1947L34.9889 23.3675L32.2917 26.0619L30.9474 24.7175C30.8777 24.6478 30.795 24.5925 30.7039 24.5547C30.6129 24.517 30.5153 24.4976 30.4167 24.4976C30.3182 24.4976 30.2206 24.517 30.1295 24.5547C30.0385 24.5925 29.9558 24.6478 29.8861 24.7175ZM34.4799 28.2482L33.3549 27.1232L36.0417 24.4297L37.1667 25.5547L34.4799 28.2482Z" fill="#161E2D"/>
</g>
<defs>
<clipPath id="clip0_15419_13594">
<rect width="24" height="24" fill="white" transform="translate(14.666 14)"/>
</clipPath>
</defs>
</svg>
