<svg width="52" height="52" viewBox="0 0 52 52" fill="none" xmlns="http://www.w3.org/2000/svg">
<rect x="0.5" y="0.5" width="51" height="51" rx="7.5" stroke="#E4E4E4"/>
<path d="M36.5 33.5H35V24.8328C35 24.6252 34.957 24.4199 34.8735 24.2298C34.7901 24.0397 34.6681 23.8689 34.5153 23.7284L27.0153 16.6522C27.0116 16.649 27.0082 16.6455 27.005 16.6419C26.7289 16.3907 26.369 16.2516 25.9958 16.2516C25.6225 16.2516 25.2627 16.3907 24.9866 16.6419L24.9762 16.6522L17.4847 23.7284C17.3319 23.8689 17.2099 24.0397 17.1265 24.2298C17.043 24.4199 17 24.6252 17 24.8328V33.5H15.5C15.3011 33.5 15.1103 33.579 14.9697 33.7197C14.829 33.8603 14.75 34.0511 14.75 34.25C14.75 34.4489 14.829 34.6397 14.9697 34.7803C15.1103 34.921 15.3011 35 15.5 35H36.5C36.6989 35 36.8897 34.921 37.0303 34.7803C37.171 34.6397 37.25 34.4489 37.25 34.25C37.25 34.0511 37.171 33.8603 37.0303 33.7197C36.8897 33.579 36.6989 33.5 36.5 33.5ZM18.5 24.8328L18.5103 24.8234L26 17.75L33.4906 24.8216L33.5009 24.8309V33.5H29V29C29 28.6022 28.842 28.2206 28.5607 27.9393C28.2794 27.658 27.8978 27.5 27.5 27.5H24.5C24.1022 27.5 23.7206 27.658 23.4393 27.9393C23.158 28.2206 23 28.6022 23 29V33.5H18.5V24.8328ZM27.5 33.5H24.5V29H27.5V33.5Z" fill="#161E2D"/>
</svg>
