<svg width="16" height="16" viewBox="0 0 16 16" fill="none" xmlns="http://www.w3.org/2000/svg">
<path d="M10.0469 1.15296C10.0628 1.09344 10.0902 1.03762 10.1277 0.988714C10.1651 0.939804 10.2118 0.898758 10.2652 0.867921C10.3185 0.837084 10.3774 0.817061 10.4385 0.808998C10.4995 0.800935 10.5616 0.804989 10.6211 0.820929C11.7533 1.11626 12.7863 1.70808 13.6136 2.53544C14.441 3.3628 15.0328 4.39578 15.3281 5.52796C15.3441 5.58747 15.3481 5.64953 15.3401 5.7106C15.332 5.77168 15.312 5.83056 15.2811 5.88389C15.2503 5.93722 15.2093 5.98395 15.1603 6.02141C15.1114 6.05886 15.0556 6.08631 14.9961 6.10218C14.9566 6.1127 14.9159 6.11795 14.875 6.1178C14.7717 6.11787 14.6713 6.08382 14.5894 6.02095C14.5074 5.95809 14.4486 5.86992 14.4219 5.77015C14.1683 4.79764 13.66 3.91033 12.9494 3.19968C12.2387 2.48902 11.3514 1.98073 10.3789 1.72718C10.3194 1.71131 10.2636 1.68386 10.2147 1.64641C10.1658 1.60895 10.1247 1.56222 10.0939 1.50889C10.063 1.45556 10.043 1.39668 10.035 1.3356C10.0269 1.27453 10.0309 1.21247 10.0469 1.15296ZM9.75391 4.22718C10.8906 4.5303 11.6188 5.25843 11.9219 6.39515C11.9486 6.49492 12.0074 6.58309 12.0894 6.64595C12.1713 6.70882 12.2717 6.74287 12.375 6.7428C12.4159 6.74295 12.4566 6.7377 12.4961 6.72718C12.5556 6.71131 12.6114 6.68386 12.6603 6.64641C12.7093 6.60895 12.7503 6.56222 12.7811 6.50889C12.812 6.45556 12.832 6.39668 12.8401 6.3356C12.8481 6.27453 12.8441 6.21247 12.8281 6.15296C12.4375 4.69124 11.4578 3.71155 9.9961 3.32093C9.9366 3.30503 9.87454 3.301 9.81348 3.30908C9.75242 3.31716 9.69355 3.33719 9.64023 3.36802C9.53254 3.43029 9.454 3.53278 9.42188 3.65296C9.38977 3.77314 9.40671 3.90115 9.46897 4.00884C9.53124 4.11652 9.63374 4.19506 9.75391 4.22718ZM15.9602 11.8053C15.8263 12.8266 15.3251 13.7642 14.5503 14.4428C13.7755 15.1214 12.78 15.4947 11.75 15.4928C5.63282 15.4928 0.656258 10.5162 0.656258 4.39905C0.654285 3.3694 1.02721 2.37424 1.70538 1.59946C2.38354 0.82468 3.32056 0.323273 4.34141 0.188898C4.57641 0.160339 4.81433 0.208795 5.01944 0.326987C5.22456 0.44518 5.38578 0.626728 5.47891 0.844366L7.12735 4.52405C7.20014 4.69064 7.23025 4.87274 7.21497 5.05388C7.1997 5.23503 7.13951 5.40951 7.03985 5.56155C7.0298 5.57703 7.01884 5.5919 7.00704 5.60608L5.36095 7.5639C5.35095 7.58419 5.34575 7.60651 5.34575 7.62913C5.34575 7.65175 5.35095 7.67407 5.36095 7.69437C5.95938 8.91937 7.24376 10.1944 8.48595 10.792C8.50669 10.8015 8.52934 10.806 8.55212 10.8052C8.5749 10.8044 8.59718 10.7982 8.61719 10.7873L10.5461 9.14671C10.5599 9.13472 10.5745 9.12376 10.5899 9.1139C10.7412 9.01298 10.9154 8.95141 11.0965 8.93477C11.2777 8.91813 11.4601 8.94694 11.6274 9.01859L15.318 10.6725C15.5327 10.7677 15.7111 10.9294 15.8268 11.1339C15.9424 11.3383 15.9892 11.5746 15.9602 11.8076V11.8053ZM15.0313 11.6897C15.0339 11.657 15.0262 11.6243 15.0092 11.5963C14.9922 11.5683 14.9669 11.5463 14.9367 11.5334L11.2453 9.87952C11.2252 9.87174 11.2035 9.86841 11.182 9.86976C11.1604 9.87111 11.1394 9.8771 11.1203 9.88733L9.19219 11.528C9.17813 11.5397 9.16329 11.5506 9.14845 11.5608C8.99117 11.6657 8.8094 11.728 8.62085 11.7417C8.43231 11.7554 8.24344 11.72 8.07266 11.6389C6.63829 10.9459 5.2086 9.52952 4.51563 8.10843C4.43413 7.93864 4.39785 7.75069 4.4103 7.56276C4.42276 7.37484 4.48353 7.19332 4.58673 7.03577C4.59679 7.0201 4.60802 7.00522 4.62032 6.99124L6.26563 5.03343C6.27503 5.01297 6.2799 4.99071 6.2799 4.96819C6.2799 4.94568 6.27503 4.92342 6.26563 4.90296L4.62032 1.22015C4.60946 1.19059 4.58993 1.165 4.56428 1.14674C4.53862 1.12848 4.50805 1.11839 4.47657 1.1178H4.4586C3.66403 1.2235 2.93508 1.61479 2.40789 2.21861C1.8807 2.82242 1.59131 3.59748 1.59376 4.39905C1.59376 9.99905 6.15001 14.5553 11.75 14.5553C12.5517 14.5577 13.3269 14.2682 13.9307 13.7409C14.5345 13.2135 14.9257 12.4844 15.0313 11.6897Z" fill="#A3ABB0"/>
</svg>
