<svg width="41" height="41" viewBox="0 0 41 41" fill="none" xmlns="http://www.w3.org/2000/svg">
<path d="M0.5 20.0748C0.5 31.1205 9.45431 40.0748 20.5 40.0748C31.5457 40.0748 40.5 31.1205 40.5 20.0748C40.5 9.02913 31.5457 0.0748291 20.5 0.0748291C9.45431 0.0748291 0.5 9.02913 0.5 20.0748Z" fill="white" fill-opacity="0.1"/>
<path d="M21.0397 12.0748C17.7506 12.0748 14.5 14.2675 14.5 17.8163C14.5 20.0731 15.7695 21.3554 16.5388 21.3554C16.8562 21.3554 17.0389 20.4706 17.0389 20.2206C17.0389 19.9224 16.2792 19.2877 16.2792 18.0471C16.2792 15.4697 18.2411 13.6424 20.78 13.6424C22.9631 13.6424 24.5788 14.883 24.5788 17.1623C24.5788 18.8645 23.896 22.0574 21.684 22.0574C20.8858 22.0574 20.203 21.4804 20.203 20.6533C20.203 19.4416 21.0493 18.2683 21.0493 17.0181C21.0493 14.8959 18.0391 15.2805 18.0391 17.8451C18.0391 18.3837 18.1064 18.98 18.3469 19.4704C17.9045 21.3746 17.0005 24.2117 17.0005 26.1736C17.0005 26.7795 17.087 27.3757 17.1447 27.9816C17.2537 28.1034 17.1992 28.0906 17.3659 28.0297C18.9816 25.8178 18.9239 25.385 19.6548 22.4902C20.0491 23.2404 21.0685 23.6443 21.8764 23.6443C25.2808 23.6443 26.81 20.3264 26.81 17.3354C26.81 14.1521 24.0595 12.0748 21.0397 12.0748Z" fill="white"/>
</svg>
