<svg width="41" height="41" viewBox="0 0 41 41" fill="none" xmlns="http://www.w3.org/2000/svg">
<path d="M0.5 20.0748C0.5 31.1205 9.45431 40.0748 20.5 40.0748C31.5457 40.0748 40.5 31.1205 40.5 20.0748C40.5 9.02913 31.5457 0.0748291 20.5 0.0748291C9.45431 0.0748291 0.5 9.02913 0.5 20.0748Z" fill="white" fill-opacity="0.1"/>
<g clip-path="url(#clip0_15419_9783)">
<path d="M21.8051 19.0029L26.9048 13.0748H25.6964L21.2682 18.2221L17.7315 13.0748H13.6523L19.0006 20.8584L13.6523 27.0748H14.8609L19.5371 21.6392L23.2721 27.0748H27.3513L21.8048 19.0029H21.8051ZM20.1498 20.9269L19.6079 20.1519L15.2963 13.9846H17.1526L20.6321 18.9618L21.174 19.7369L25.6969 26.2064H23.8407L20.1498 20.9272V20.9269Z" fill="white"/>
</g>
<defs>
<clipPath id="clip0_15419_9783">
<rect width="14" height="14" fill="white" transform="translate(13.5 13.0748)"/>
</clipPath>
</defs>
</svg>
