<svg width="41" height="41" viewBox="0 0 41 41" fill="none" xmlns="http://www.w3.org/2000/svg">
<path d="M0.5 20.0748C0.5 31.1205 9.45431 40.0748 20.5 40.0748C31.5457 40.0748 40.5 31.1205 40.5 20.0748C40.5 9.02913 31.5457 0.0748291 20.5 0.0748291C9.45431 0.0748291 0.5 9.02913 0.5 20.0748Z" fill="white" fill-opacity="0.1"/>
<path d="M28.1657 15.8351C27.9817 15.1422 27.4395 14.5965 26.7511 14.4113C25.5033 14.0748 20.5 14.0748 20.5 14.0748C20.5 14.0748 15.4967 14.0748 14.2489 14.4113C13.5605 14.5965 13.0183 15.1422 12.8343 15.8351C12.5 17.0909 12.5 19.7112 12.5 19.7112C12.5 19.7112 12.5 22.3314 12.8343 23.5873C13.0183 24.2802 13.5605 24.8031 14.2489 24.9883C15.4967 25.3248 20.5 25.3248 20.5 25.3248C20.5 25.3248 25.5033 25.3248 26.7511 24.9883C27.4395 24.8031 27.9817 24.2802 28.1657 23.5873C28.5 22.3314 28.5 19.7112 28.5 19.7112C28.5 19.7112 28.5 17.0909 28.1657 15.8351ZM18.8636 22.0902V17.3322L23.0454 19.7112L18.8636 22.0902Z" fill="white"/>
</svg>
